<svg width="114" height="55" viewBox="0 0 114 55" fill="none" xmlns="http://www.w3.org/2000/svg">
<path d="M19 18.5H1V20H20L33 2.5L47 20H60L70.5 6L74 9.5L65.5 20.5H75L84 8.5L95 20.5H114V18.5H95.5L84 6L75 8L70.5 3.5L58.5 18.5H47.5L33 0L19 18.5Z" fill="#B88B57"/>
<path d="M114 49H94V50.5H114V49Z" fill="#996940"/>
<path d="M21 49H1V50.5H21V49Z" fill="#996940"/>
<line x1="32.2016" y1="5.14784" x2="21.2016" y2="20.1478" stroke="#201D1F" stroke-width="0.5"/>
<line x1="84.185" y1="9.83183" x2="94.185" y2="20.8318" stroke="#201D1F" stroke-width="0.5"/>
<line x1="70.1768" y1="6.82322" x2="73.1768" y2="9.82322" stroke="#201D1F" stroke-width="0.5"/>
<rect x="19" y="8" width="6" height="2" fill="#95673D"/>
<path d="M20 10H24V12L20 17.5V10Z" fill="#B08253"/>
<path d="M33 -9.1794e-07L54 6L47.5 18.5L33 -9.1794e-07Z" fill="url(#paint0_linear_2349_127)"/>
<path d="M47.5 18.5L54 6L70.5 3.5L58.5 18.5L47.5 18.5Z" fill="url(#paint1_linear_2349_127)"/>
<path d="M5.675 41.3V42H0.85V41.3L2.225 41.125C2.40833 41.0917 2.54167 41.0583 2.625 41.025C2.70833 40.975 2.78333 40.8667 2.85 40.7C2.91667 40.5333 3.00833 40.2667 3.125 39.9L7.9 25H10.05L14.85 39.9C14.9667 40.2667 15.0583 40.5333 15.125 40.7C15.1917 40.8667 15.2667 40.975 15.35 41.025C15.45 41.0583 15.5833 41.0917 15.75 41.125L17.125 41.3V42H10.225V41.3L11.6 41.125C11.8667 41.0917 12.0083 41.025 12.025 40.925C12.0583 40.8083 11.9833 40.4667 11.8 39.9L10.85 36.8H5.075L4.1 39.9C3.93333 40.4667 3.85833 40.8083 3.875 40.925C3.89167 41.025 4.03333 41.0917 4.3 41.125L5.675 41.3ZM5.375 35.925H10.575L8 27.625L5.375 35.925ZM24.0418 25.7V25H31.5918C33.3418 25 34.6918 25.3917 35.6418 26.175C36.5918 26.9583 37.0668 28.0083 37.0668 29.325V29.9C37.0668 30.9 36.7918 31.75 36.2418 32.45C35.6918 33.15 34.9001 33.65 33.8668 33.95L36.9918 39.9C37.1918 40.2667 37.3418 40.5333 37.4418 40.7C37.5418 40.8667 37.6335 40.975 37.7168 41.025C37.8168 41.0583 37.9501 41.0917 38.1168 41.125L39.2418 41.3V42H34.5668L30.7918 34.25H28.9668V39.9C28.9668 40.4667 28.9918 40.8083 29.0418 40.925C29.0918 41.025 29.2501 41.0917 29.5168 41.125L30.8918 41.3V42H24.0418V41.3L25.4168 41.125C25.6835 41.0917 25.8418 41.025 25.8918 40.925C25.9418 40.8083 25.9668 40.4667 25.9668 39.9V27.1C25.9668 26.5333 25.9418 26.2 25.8918 26.1C25.8418 25.9833 25.6835 25.9083 25.4168 25.875L24.0418 25.7ZM31.5918 25.875H28.9668V33.375H31.5918C32.3251 33.375 32.8835 33.15 33.2668 32.7C33.6668 32.2333 33.8668 31.3833 33.8668 30.15V29.075C33.8668 27.8417 33.6668 27 33.2668 26.55C32.8835 26.1 32.3251 25.875 31.5918 25.875ZM65.951 41.3V42H59.101V41.3L60.476 41.125C60.7426 41.0917 60.901 41.025 60.951 40.925C61.001 40.8083 61.026 40.4667 61.026 39.9V27.05L56.451 40H53.776L49.251 27.125V39.9C49.251 40.4667 49.276 40.8083 49.326 40.925C49.376 41.025 49.5343 41.0917 49.801 41.125L51.176 41.3V42H46.326V41.3L47.701 41.125C47.9676 41.0917 48.126 41.025 48.176 40.925C48.226 40.8083 48.251 40.4667 48.251 39.9V27.1C48.251 26.5333 48.226 26.2 48.176 26.1C48.126 25.9833 47.9676 25.9083 47.701 25.875L46.326 25.7V25H51.601L56.176 38L60.826 25H65.951V25.7L64.576 25.875C64.3093 25.9083 64.151 25.9833 64.101 26.1C64.051 26.2 64.026 26.5333 64.026 27.1V39.9C64.026 40.4667 64.051 40.8083 64.101 40.925C64.151 41.025 64.3093 41.0917 64.576 41.125L65.951 41.3ZM77.7033 41.3V42H72.8783V41.3L74.2533 41.125C74.4367 41.0917 74.57 41.0583 74.6533 41.025C74.7367 40.975 74.8117 40.8667 74.8783 40.7C74.945 40.5333 75.0367 40.2667 75.1533 39.9L79.9283 25H82.0783L86.8783 39.9C86.995 40.2667 87.0867 40.5333 87.1533 40.7C87.22 40.8667 87.295 40.975 87.3783 41.025C87.4783 41.0583 87.6117 41.0917 87.7783 41.125L89.1533 41.3V42H82.2533V41.3L83.6283 41.125C83.895 41.0917 84.0367 41.025 84.0533 40.925C84.0867 40.8083 84.0117 40.4667 83.8283 39.9L82.8783 36.8H77.1033L76.1283 39.9C75.9617 40.4667 75.8867 40.8083 75.9033 40.925C75.92 41.025 76.0617 41.0917 76.3283 41.125L77.7033 41.3ZM77.4033 35.925H82.6033L80.0283 27.625L77.4033 35.925ZM106.62 25.7V25H111.47V25.7L110.095 25.875C109.828 25.9083 109.67 25.9833 109.62 26.1C109.57 26.2 109.545 26.5333 109.545 27.1V42H108.17L98.9951 27.175V39.9C98.9951 40.4667 99.0201 40.8083 99.0701 40.925C99.1201 41.025 99.2785 41.0917 99.5451 41.125L100.92 41.3V42H96.0701V41.3L97.4451 41.125C97.7118 41.0917 97.8701 41.025 97.9201 40.925C97.9701 40.8083 97.9951 40.4667 97.9951 39.9V27.1C97.9951 26.5333 97.9701 26.2 97.9201 26.1C97.8701 25.9833 97.7118 25.9083 97.4451 25.875L96.0701 25.7V25H101.095L108.545 36.975V27.1C108.545 26.5333 108.52 26.2 108.47 26.1C108.42 25.9833 108.262 25.9083 107.995 25.875L106.62 25.7Z" fill="black"/>
<path d="M25.387 47.132V46.88H28.105C28.735 46.88 29.221 47.021 29.563 47.303C29.905 47.585 30.076 47.963 30.076 48.437V48.644C30.076 49.004 29.977 49.31 29.779 49.562C29.581 49.814 29.296 49.994 28.924 50.102L30.049 52.244C30.121 52.376 30.175 52.472 30.211 52.532C30.247 52.592 30.28 52.631 30.31 52.649C30.346 52.661 30.394 52.673 30.454 52.685L30.859 52.748V53H29.176L27.817 50.21H27.16V52.244C27.16 52.448 27.169 52.571 27.187 52.613C27.205 52.649 27.262 52.673 27.358 52.685L27.853 52.748V53H25.387V52.748L25.882 52.685C25.978 52.673 26.035 52.649 26.053 52.613C26.071 52.571 26.08 52.448 26.08 52.244V47.636C26.08 47.432 26.071 47.312 26.053 47.276C26.035 47.234 25.978 47.207 25.882 47.195L25.387 47.132ZM28.105 47.195H27.16V49.895H28.105C28.369 49.895 28.57 49.814 28.708 49.652C28.852 49.484 28.924 49.178 28.924 48.734V48.347C28.924 47.903 28.852 47.6 28.708 47.438C28.57 47.276 28.369 47.195 28.105 47.195ZM36.6223 51.452H36.8743V53H32.4193V52.748L32.9143 52.685C33.0103 52.673 33.0673 52.649 33.0853 52.613C33.1033 52.571 33.1123 52.448 33.1123 52.244V47.636C33.1123 47.432 33.1033 47.312 33.0853 47.276C33.0673 47.234 33.0103 47.207 32.9143 47.195L32.4193 47.132V46.88H36.7843V48.428H36.5323L36.2443 47.429C36.2263 47.357 36.2053 47.306 36.1813 47.276C36.1633 47.24 36.1243 47.219 36.0643 47.213C36.0043 47.201 35.9023 47.195 35.7583 47.195H34.1923V49.751H35.2183C35.3623 49.751 35.4643 49.748 35.5243 49.742C35.5843 49.73 35.6233 49.709 35.6413 49.679C35.6653 49.643 35.6863 49.589 35.7043 49.517L35.9023 48.788H36.1543V51.029H35.9023L35.7043 50.3C35.6863 50.228 35.6653 50.177 35.6413 50.147C35.6233 50.111 35.5843 50.09 35.5243 50.084C35.4643 50.072 35.3623 50.066 35.2183 50.066H34.1923V52.685H35.8483C35.9923 52.685 36.0943 52.682 36.1543 52.676C36.2143 52.664 36.2533 52.643 36.2713 52.613C36.2953 52.577 36.3163 52.523 36.3343 52.451L36.6223 51.452ZM42.8102 47.132V46.88H44.5562V47.132L44.0612 47.195C43.9652 47.207 43.9082 47.234 43.8902 47.276C43.8722 47.312 43.8632 47.432 43.8632 47.636V53H43.3682L40.0652 47.663V52.244C40.0652 52.448 40.0742 52.571 40.0922 52.613C40.1102 52.649 40.1672 52.673 40.2632 52.685L40.7582 52.748V53H39.0122V52.748L39.5072 52.685C39.6032 52.673 39.6602 52.649 39.6782 52.613C39.6962 52.571 39.7052 52.448 39.7052 52.244V47.636C39.7052 47.432 39.6962 47.312 39.6782 47.276C39.6602 47.234 39.6032 47.207 39.5072 47.195L39.0122 47.132V46.88H40.8212L43.5032 51.191V47.636C43.5032 47.432 43.4942 47.312 43.4762 47.276C43.4582 47.234 43.4012 47.207 43.3052 47.195L42.8102 47.132ZM51.4459 49.652V50.219C51.4459 51.143 51.2389 51.854 50.8249 52.352C50.4169 52.844 49.8109 53.09 49.0069 53.09C48.2029 53.09 47.5939 52.844 47.1799 52.352C46.7719 51.854 46.5679 51.143 46.5679 50.219V49.652C46.5679 48.728 46.7719 48.02 47.1799 47.528C47.5939 47.036 48.2029 46.79 49.0069 46.79C49.8109 46.79 50.4169 47.036 50.8249 47.528C51.2389 48.02 51.4459 48.728 51.4459 49.652ZM50.2939 49.202C50.2939 48.674 50.2489 48.26 50.1589 47.96C50.0689 47.654 49.9279 47.435 49.7359 47.303C49.5499 47.171 49.3069 47.105 49.0069 47.105C48.7129 47.105 48.4699 47.171 48.2779 47.303C48.0859 47.435 47.9449 47.654 47.8549 47.96C47.7649 48.26 47.7199 48.674 47.7199 49.202V50.669C47.7199 51.191 47.7649 51.605 47.8549 51.911C47.9449 52.217 48.0859 52.439 48.2779 52.577C48.4699 52.709 48.7129 52.775 49.0069 52.775C49.3069 52.775 49.5499 52.709 49.7359 52.577C49.9279 52.439 50.0689 52.217 50.1589 51.911C50.2489 51.605 50.2939 51.191 50.2939 50.669V49.202ZM57.8769 47.636L56.1759 53H55.4019L53.6919 47.636C53.6499 47.498 53.6169 47.402 53.5929 47.348C53.5689 47.288 53.5419 47.249 53.5119 47.231C53.4819 47.213 53.4339 47.201 53.3679 47.195L52.8729 47.132V46.88H55.3749V47.132L54.8799 47.195C54.7839 47.207 54.7329 47.234 54.7269 47.276C54.7209 47.312 54.7479 47.432 54.8079 47.636L56.1759 51.929L57.5259 47.636C57.5919 47.432 57.6189 47.312 57.6069 47.276C57.6009 47.234 57.5499 47.207 57.4539 47.195L56.9589 47.132V46.88H58.6869V47.132L58.1919 47.195C58.1319 47.201 58.0869 47.213 58.0569 47.231C58.0269 47.249 57.9999 47.288 57.9759 47.348C57.9519 47.402 57.9189 47.498 57.8769 47.636ZM60.8426 52.748V53H59.1056V52.748L59.6006 52.685C59.6666 52.673 59.7146 52.661 59.7446 52.649C59.7746 52.631 59.8016 52.592 59.8256 52.532C59.8496 52.472 59.8826 52.376 59.9246 52.244L61.6436 46.88H62.4176L64.1456 52.244C64.1876 52.376 64.2206 52.472 64.2446 52.532C64.2686 52.592 64.2956 52.631 64.3256 52.649C64.3616 52.661 64.4096 52.673 64.4696 52.685L64.9646 52.748V53H62.4806V52.748L62.9756 52.685C63.0716 52.673 63.1226 52.649 63.1286 52.613C63.1406 52.571 63.1136 52.448 63.0476 52.244L62.7056 51.128H60.6266L60.2756 52.244C60.2156 52.448 60.1886 52.571 60.1946 52.613C60.2006 52.649 60.2516 52.673 60.3476 52.685L60.8426 52.748ZM60.7346 50.813H62.6066L61.6796 47.825L60.7346 50.813ZM65.7374 46.88H70.6874V48.428H70.4354L70.1474 47.429C70.1294 47.351 70.1084 47.297 70.0844 47.267C70.0664 47.231 70.0274 47.21 69.9674 47.204C69.9074 47.198 69.8054 47.195 69.6614 47.195H68.7524V52.244C68.7524 52.448 68.7614 52.571 68.7794 52.613C68.7974 52.649 68.8544 52.673 68.9504 52.685L69.4454 52.748V53H66.9794V52.748L67.4744 52.685C67.5704 52.673 67.6274 52.649 67.6454 52.613C67.6634 52.571 67.6724 52.448 67.6724 52.244V47.195H66.7634C66.6254 47.195 66.5234 47.198 66.4574 47.204C66.3974 47.21 66.3584 47.231 66.3404 47.267C66.3224 47.297 66.3014 47.351 66.2774 47.429L65.9894 48.428H65.7374V46.88ZM72.3543 47.132V46.88H74.8203V47.132L74.3253 47.195C74.2293 47.207 74.1723 47.234 74.1543 47.276C74.1363 47.312 74.1273 47.432 74.1273 47.636V52.244C74.1273 52.448 74.1363 52.571 74.1543 52.613C74.1723 52.649 74.2293 52.673 74.3253 52.685L74.8203 52.748V53H72.3543V52.748L72.8493 52.685C72.9453 52.673 73.0023 52.649 73.0203 52.613C73.0383 52.571 73.0473 52.448 73.0473 52.244V47.636C73.0473 47.432 73.0383 47.312 73.0203 47.276C73.0023 47.234 72.9453 47.207 72.8493 47.195L72.3543 47.132ZM81.8525 49.652V50.219C81.8525 51.143 81.6455 51.854 81.2315 52.352C80.8235 52.844 80.2175 53.09 79.4135 53.09C78.6095 53.09 78.0005 52.844 77.5865 52.352C77.1785 51.854 76.9745 51.143 76.9745 50.219V49.652C76.9745 48.728 77.1785 48.02 77.5865 47.528C78.0005 47.036 78.6095 46.79 79.4135 46.79C80.2175 46.79 80.8235 47.036 81.2315 47.528C81.6455 48.02 81.8525 48.728 81.8525 49.652ZM80.7005 49.202C80.7005 48.674 80.6555 48.26 80.5655 47.96C80.4755 47.654 80.3345 47.435 80.1425 47.303C79.9565 47.171 79.7135 47.105 79.4135 47.105C79.1195 47.105 78.8765 47.171 78.6845 47.303C78.4925 47.435 78.3515 47.654 78.2615 47.96C78.1715 48.26 78.1265 48.674 78.1265 49.202V50.669C78.1265 51.191 78.1715 51.605 78.2615 51.911C78.3515 52.217 78.4925 52.439 78.6845 52.577C78.8765 52.709 79.1195 52.775 79.4135 52.775C79.7135 52.775 79.9565 52.709 80.1425 52.577C80.3345 52.439 80.4755 52.217 80.5655 51.911C80.6555 51.605 80.7005 51.191 80.7005 50.669V49.202ZM87.8 47.132V46.88H89.546V47.132L89.051 47.195C88.955 47.207 88.898 47.234 88.88 47.276C88.862 47.312 88.853 47.432 88.853 47.636V53H88.358L85.055 47.663V52.244C85.055 52.448 85.064 52.571 85.082 52.613C85.1 52.649 85.157 52.673 85.253 52.685L85.748 52.748V53H84.002V52.748L84.497 52.685C84.593 52.673 84.65 52.649 84.668 52.613C84.686 52.571 84.695 52.448 84.695 52.244V47.636C84.695 47.432 84.686 47.312 84.668 47.276C84.65 47.234 84.593 47.207 84.497 47.195L84.002 47.132V46.88H85.811L88.493 51.191V47.636C88.493 47.432 88.484 47.312 88.466 47.276C88.448 47.234 88.391 47.207 88.295 47.195L87.8 47.132Z" fill="black"/>
<rect x="31" y="14" width="2" height="2" fill="#050505"/>
<rect x="81" y="14" width="2" height="2" fill="#050505"/>
<rect x="31" y="17" width="2" height="2" fill="#050505"/>
<rect x="81" y="17" width="2" height="2" fill="#050505"/>
<rect x="34" y="14" width="2" height="2" fill="#050505"/>
<rect x="84" y="14" width="2" height="2" fill="#050505"/>
<rect x="34" y="17" width="2" height="2" fill="#050505"/>
<rect x="84" y="17" width="2" height="2" fill="#050505"/>
<defs>
<linearGradient id="paint0_linear_2349_127" x1="51.5" y1="11.5" x2="33" y2="1.21035e-06" gradientUnits="userSpaceOnUse">
<stop stop-color="#8A5436"/>
<stop offset="0.955805" stop-color="#D29E63"/>
</linearGradient>
<linearGradient id="paint1_linear_2349_127" x1="71" y1="3" x2="47.5" y2="11" gradientUnits="userSpaceOnUse">
<stop offset="0.0242219" stop-color="#855534"/>
<stop offset="1" stop-color="#B6884E"/>
</linearGradient>
</defs>
</svg>
